<svg width="42" height="45" viewBox="0 0 42 45" fill="none" xmlns="http://www.w3.org/2000/svg">
<path d="M1.8 40.7989V37.733C1.8 37.1965 1 37.1965 1 37.733V41.2588C1 41.504 1.21333 41.5654 1.32 41.5654H5.8C6.36 41.5654 6.36 40.7989 5.8 40.7989H1.8Z" fill="#2274A5"/>
<path d="M1 35.2803C1 35.8168 1.8 35.8168 1.8 35.2803V15.9653L21 1.86228L40.2 16.042V40.7989H33.24C32.68 40.7989 32.68 41.5654 33.24 41.5654H40.76C41 41.5654 41 41.4121 41 41.2588V15.6587L29.08 6.88786L28.2 6.24035L21.3125 1.17245C21 0.942515 21 0.942515 20.68 1.17245L1 15.6587V35.2803Z" fill="#2274A5"/>
<path d="M29.08 6.88786V4.23833H35.64V9.52697C35.64 9.9102 36.44 9.9102 36.44 9.52697V3.77845C36.44 3.54851 36.36 3.47186 36.2 3.47186H28.5657C28.28 3.47186 28.2 3.62516 28.2 3.8551V6.24035L29.08 6.88786Z" fill="#2274A5"/>
<path d="M29.08 6.88786L41 15.6587V41.2588C41 41.4121 41 41.5654 40.76 41.5654H33.24C32.68 41.5654 32.68 40.7989 33.24 40.7989H40.2V16.042L21 1.86228L1.8 15.9653V35.2803C1.8 35.8168 1 35.8168 1 35.2803V15.6587L20.68 1.17245C21 0.942515 21 0.942515 21.3125 1.17245L28.2 6.24035M29.08 6.88786V4.23833H35.64V9.52697C35.64 9.9102 36.44 9.9102 36.44 9.52697V3.77845C36.44 3.54851 36.36 3.47186 36.2 3.47186H28.5657C28.28 3.47186 28.2 3.62516 28.2 3.8551V6.24035M29.08 6.88786L28.2 6.24035M1.8 40.7989V37.733C1.8 37.1965 1 37.1965 1 37.733V41.2588C1 41.504 1.21333 41.5654 1.32 41.5654H5.8C6.36 41.5654 6.36 40.7989 5.8 40.7989H1.8Z" stroke="#2274A5"/>
<path d="M15.72 16.406C16.44 16.406 17.88 15.7929 17.88 14.8731V12.1138C17.88 11.2707 16.6504 10.7342 15.72 10.7342C14.7896 10.7342 13.48 11.2707 13.48 12.1138V14.8731C13.48 15.7162 15 16.406 15.72 16.406Z" fill="white"/>
<path d="M26.36 16.406C27.32 16.406 28.52 15.7929 28.52 14.8731V12.1138C28.52 11.2707 27.2904 10.7342 26.36 10.7342C25.4296 10.7342 24.12 11.2707 24.12 12.1138V14.8731C24.12 15.7162 25.32 16.406 26.36 16.406Z" fill="white"/>
<path d="M19.64 21.7713V19.8551C18.68 18.7054 17.08 18.5522 15.32 18.5522C14.04 18.5522 10.28 19.242 9.8 23.151V31.2755H11L11.88 23.5342C12.04 22.8444 12.92 23.0743 12.84 23.5342L11.24 36.0276H18.2V29.1294C18.2 28.9761 19 28.2097 20.44 27.9031C20.12 27.6731 19.72 27.0906 19.72 26.6001V24.224C19.72 23.2276 21.16 22.5378 22.28 22.5378C23.32 22.5378 24.76 23.2276 24.76 24.224V26.4468L24.76 26.4518C24.76 27.1836 24.3333 27.6731 24.12 27.8264C24.68 27.7498 26.84 28.7462 26.84 29.0528V34.1115C27.16 35.951 28.04 42.9259 28.44 44.1522H29.56C30.04 44.1522 29.88 33.0384 29.72 32.1186V22.4611C29.72 22.0013 30.52 22.0779 30.52 22.4611V31.2755H32.2V20.1617C32.2 19.9318 29.64 18.5522 26.6 18.5522C22.76 18.5522 20.84 19.6252 20.44 20.2384V21.7713C20.44 22.1546 19.64 22.1546 19.64 21.7713Z" fill="white"/>
<path d="M20.52 24.3773V26.5234C20.52 27.1366 21.48 27.7498 22.28 27.7498C22.92 27.7498 23.88 27.2132 23.88 26.5234V24.3773C23.88 23.7641 22.8658 23.3043 22.28 23.3043C21.72 23.3043 20.52 23.6875 20.52 24.3773Z" fill="white"/>
<path d="M20.2 44.2289H20.76C20.888 43.9836 21.8 39.63 22.12 36.9474C22.2 36.4875 22.88 36.5642 22.92 36.9474C23 37.7139 23.72 41.3163 25 44.2289H25.48C25.96 42.9259 25 35.5678 24.04 31.2755C23.96 30.8923 24.76 30.739 24.84 31.2755L25.8 36.1809H26.04V29.436C25.72 28.8995 23.983 28.4396 22.6 28.4396C21.56 28.4396 19.88 28.5929 19 29.436V36.1809H19.24L20.2 31.2755C20.36 30.739 21.08 30.9689 21 31.4288L19.96 36.5642C19.88 36.8708 19.88 42.7726 20.2 44.2289Z" fill="white"/>
<path d="M16.2 44.2289H17.08C17.3131 44.2289 17.7727 39.5281 18.0188 37.0109L18.04 36.7941H15.88L15.72 37.4839L16.2 44.2289Z" fill="white"/>
<path d="M13 36.7941H15.08C15.08 37.8672 13.64 42.6193 12.92 44.2289H11.96L13 36.7941Z" fill="white"/>
<path fill-rule="evenodd" clip-rule="evenodd" d="M29.96 44.9953C30.28 44.9953 30.3135 44.4588 30.36 44.1522C30.936 40.3505 30.7067 34.5458 30.52 32.1186H32.6C32.92 32.1186 33 31.8632 33 31.7354V19.9318C33 19.242 29.8 17.7857 26.6 17.7857C23.5902 17.7857 21.5255 18.6089 20.4129 19.3186C20.0587 19.5446 19.801 19.6824 19.64 19.8551V21.7713C19.64 22.1546 20.44 22.1546 20.44 21.7713V20.2384C20.84 19.6252 22.76 18.5522 26.6 18.5522C29.64 18.5522 32.2 19.9318 32.2 20.1617V31.2755H30.52V22.4611C30.52 22.0779 29.72 22.0013 29.72 22.4611V32.1186C29.88 33.0384 30.04 44.1522 29.56 44.1522H28.44C28.04 42.9259 27.16 35.951 26.84 34.1115V29.0528C26.84 28.7462 24.68 27.7498 24.12 27.8264C24.3333 27.6731 24.76 27.1836 24.76 26.4518L24.76 26.4468V24.224C24.76 23.2276 23.32 22.5378 22.28 22.5378C21.16 22.5378 19.72 23.2276 19.72 24.224V26.6001C19.72 27.0906 20.12 27.6731 20.44 27.9031C19 28.2097 18.2 28.9761 18.2 29.1294V36.0276H11.24L12.84 23.5342C12.92 23.0743 12.04 22.8444 11.88 23.5342L11 31.2755H9.8V23.151C10.28 19.242 14.04 18.5522 15.32 18.5522C17.08 18.5522 18.68 18.7054 19.64 19.8551C19.801 19.6824 20.0587 19.5446 20.4129 19.3186C19.24 18.3989 17.88 17.7857 15.96 17.7857C12.76 17.7857 9.4 19.1653 9 23.0372V31.7354C9 32.042 9.24 32.042 9.4 32.042H10.92L10.36 36.3342C10.36 36.7021 10.5733 36.7941 10.68 36.7941H12.12L11.08 44.6121C11.08 44.842 11.24 44.9953 11.4 44.9953H13.32C13.704 44.9953 14.6533 41.8784 15.08 40.3199L15.4 44.7068C15.4 45.0603 15.88 44.9953 16.2 44.9953H17.64C17.832 44.9953 17.9333 44.6376 17.96 44.4588L18.84 36.9474H19.16C19 38.4803 19.2933 42.747 19.56 44.842C19.5738 44.9507 19.72 44.9953 19.8 44.9953H21.08C21.32 44.9953 21.4 44.7068 21.48 44.4588L22.6 39.7067C22.728 40.2585 23.2933 43.2701 23.56 44.7068C23.64 44.9953 23.88 44.9953 24.04 44.9953H25.96C26.36 44.9953 26.36 44.1267 26.36 43.6923L26.44 38.0205L27.56 44.6121C27.64 44.9953 27.9333 44.9953 28.12 44.9953H29.96ZM15.08 36.7941H13L11.96 44.2289H12.92C13.64 42.6193 15.08 37.8672 15.08 36.7941ZM17.08 44.2289H16.2L15.72 37.4839L15.88 36.7941H18.04L18.0188 37.0109C17.7727 39.5281 17.3131 44.2289 17.08 44.2289ZM20.76 44.2289H20.2C19.88 42.7726 19.88 36.8708 19.96 36.5642L21 31.4288C21.08 30.9689 20.36 30.739 20.2 31.2755L19.24 36.1809H19V29.436C19.88 28.5929 21.56 28.4396 22.6 28.4396C23.983 28.4396 25.72 28.8995 26.04 29.436V36.1809H25.8L24.84 31.2755C24.76 30.739 23.96 30.8923 24.04 31.2755C25 35.5678 25.96 42.9259 25.48 44.2289H25C23.72 41.3163 23 37.7139 22.92 36.9474C22.88 36.5642 22.2 36.4875 22.12 36.9474C21.8 39.63 20.888 43.9836 20.76 44.2289ZM20.52 26.5234V24.3773C20.52 23.6875 21.72 23.3043 22.28 23.3043C22.8658 23.3043 23.88 23.7641 23.88 24.3773V26.5234C23.88 27.2132 22.92 27.7498 22.28 27.7498C21.48 27.7498 20.52 27.1366 20.52 26.5234Z" fill="#5FAD56"/>
<path fill-rule="evenodd" clip-rule="evenodd" d="M26.36 17.2492C27.88 17.2492 29.4 16.0228 29.4 14.8731V11.9605C29.4 10.9641 28.04 9.89105 26.36 9.89105C24.68 9.89105 23.32 10.8875 23.32 11.9605V14.8731C23.32 16.0228 24.84 17.2492 26.36 17.2492ZM28.52 14.8731C28.52 15.7929 27.32 16.406 26.36 16.406C25.32 16.406 24.12 15.7162 24.12 14.8731V12.1138C24.12 11.2707 25.4296 10.7342 26.36 10.7342C27.2904 10.7342 28.52 11.2707 28.52 12.1138V14.8731Z" fill="#5FAD56"/>
<path fill-rule="evenodd" clip-rule="evenodd" d="M15.72 17.2492C17.24 17.2492 18.76 16.0228 18.76 14.8731V11.9605C18.76 10.9641 17.4 9.89105 15.72 9.89105C14.04 9.89105 12.68 10.8875 12.68 11.9605V14.8731C12.68 16.0228 14.2 17.2492 15.72 17.2492ZM17.88 14.8731C17.88 15.7929 16.44 16.406 15.72 16.406C15 16.406 13.48 15.7162 13.48 14.8731V12.1138C13.48 11.2707 14.7896 10.7342 15.72 10.7342C16.6504 10.7342 17.88 11.2707 17.88 12.1138V14.8731Z" fill="#5FAD56"/>
</svg>
